PathFileType	4	(X/Y/Z)	17_1_33_p1_0-299_filt_butterworth.trc
DataRate	CameraRate	NumFrames	NumMarkers	Units	OrigDataRate	OrigDataStartFrame	OrigNumFrames
60.0	60.0	5	27	m	60.0	261	299
Frame#	Time	RHip			RKnee			RAnkle			RBigToe			RSmallToe			RHeel			LHip			LKnee			LAnkle			LBigToe			LSmallToe			LHeel			Neck			Head			Nose			RShoulder			RElbow			RWrist			RThumb			RIndex			RPinky			LShoulder			LElbow			LWrist			LThumb			LIndex			LPinky			
		X1	Y1	Z1	X2	Y2	Z2	X3	Y3	Z3	X4	Y4	Z4	X5	Y5	Z5	X6	Y6	Z6	X7	Y7	Z7	X8	Y8	Z8	X9	Y9	Z9	X10	Y10	Z10	X11	Y11	Z11	X12	Y12	Z12	X13	Y13	Z13	X14	Y14	Z14	X15	Y15	Z15	X16	Y16	Z16	X17	Y17	Z17	X18	Y18	Z18	X19	Y19	Z19	X20	Y20	Z20	X21	Y21	Z21	X22	Y22	Z22	X23	Y23	Z23	X24	Y24	Z24	X25	Y25	Z25	X26	Y26	Z26	X27	Y27	Z27	
261	4.35	0.2527160015424631	0.5957543303217729	0.8454118124418343	0.23978824457015857	0.6272393705147148	1.2450080977600317	0.20526328137294303	0.7958853589132765	1.7163395363462837	0.2347127822521129	0.5201583503535843	1.7128575904827328	0.28371481498005213	0.5795984495504315	1.73235004673768	0.1957487163316011	0.831633254759105	1.759504084775497	0.0317736242178465	0.5518319368718217	0.8396708591630906	0.02691366220320459	0.6230289040139566	1.25899743063758	-0.004491451302171941	0.7387117207171862	1.6835886913124247	0.08361113537499426	0.4832291112941628	1.6941599724094	0.00451445241340207	0.5288534885266999	1.6972269123620198	-0.009052417597577835	0.8461034015177031	1.7801637700625947	0.13334555467851927	0.5207861021938756	0.19300557105949612	0.14998844045670245	0.42717263440630593	-0.047679099043979815	0.16118319992947772	0.38376419848732257	0.085761642941333	0.3210786841044837	0.5495495614120623	0.3081198397580758	0.3582182365764146	0.5941697682958168	0.5778327768083963	0.40974098863448477	0.526502920646361	0.8309088998834883	0.3825317400475655	0.5230679112335667	0.9558909625832546	0.40587723145829285	0.5348834243330574	0.9885942847280182	0.38545190845010696	0.5995336858853703	0.9880386684156539	-0.011479054500774185	0.5381433990109263	0.3045387845847291	-0.07334311292696327	0.5107889983287457	0.5851614939896196	-0.10830785473228258	0.46700802998090923	0.8417118727810153	-0.11349462791911896	0.43216732198364444	0.9508534408351845	-0.12724100583972492	0.43646547445156886	0.9752329485223277	-0.14430993624834615	0.48798056347496854	0.973286615873508
262	4.366666666666666	0.25270930005320486	0.5958231858670249	0.8454011962750969	0.23956654877139588	0.627271769221172	1.2451684372781773	0.20529550277904948	0.7959084421398754	1.7166050517428244	0.23253623075959792	0.5214798021022744	1.7134350192113406	0.2835799308648028	0.5798383399093289	1.7325372154693879	0.19472217616982404	0.8315744012410318	1.7612733973378358	0.03177684466954618	0.5523125312934555	0.8413660423037038	0.026932806768344614	0.6237322583071053	1.259915611635585	-0.004507371985161269	0.7386165186603424	1.6836034014073642	0.08405271900035409	0.48102700889741107	1.6937390048387606	0.003861724499544919	0.5287165301775365	1.6972290385976172	-0.009174070081086953	0.8465317891535877	1.7808283752857323	0.13340945341274524	0.5207468421299484	0.19428693736994107	0.1470496366492118	0.4309765440617002	-0.04802866241923799	0.16014474152054547	0.3820373249272782	0.08621552064758413	0.32031488689436666	0.5500416732000073	0.3089944072507848	0.3578351511293757	0.5911492871121504	0.5794997543284797	0.40951175794734174	0.5207748096146794	0.8308334861306449	0.38616210391245304	0.50971941745992	0.9548696759419735	0.40949915559173855	0.52610829475084	0.9895206107708396	0.391651032790277	0.5790374561157552	0.9852282671294854	-0.01165917230038609	0.5384608702790279	0.30458839883698424	-0.07316766937766012	0.5093765286202883	0.5840192067420823	-0.1090091618548083	0.4527807809424242	0.8417399197059517	-0.1132171810876892	0.4292293921572928	0.9531336332645847	-0.12655269610071998	0.43554209076086253	0.980773847985888	-0.14212392112095776	0.4830576230116514	0.9773804441859228
263	4.383333333333334	0.2526668594355098	0.5959272948741134	0.8454192230511044	0.2387705777344876	0.6273262914785558	1.246390903994801	0.2053333644566237	0.7959186451376488	1.7167799695706698	0.231414567123714	0.5237534919848131	1.7150304162203307	0.28355102754941697	0.5812144211292783	1.7333450700508133	0.1941965083321738	0.8313357162488514	1.7609585204497498	0.03177366985465014	0.5525121924394976	0.8437374167078892	0.02620195221635949	0.6263253584585675	1.2606405323173207	-0.00470327478392123	0.7384343791014303	1.6833973299639666	0.08325363534538645	0.4847962435910831	1.69578555757082	0.0025239232067324805	0.5284449470795793	1.6976575443428756	-0.009516262698647571	0.8466441298767409	1.7787569967542038	0.13351163043748784	0.5207165565748797	0.19628913277971027	0.14385761563386126	0.4343916837276876	-0.04828367002802323	0.15853260429211952	0.3784027370334249	0.08728111735279907	0.31830814408161695	0.553914010745792	0.3094614780244307	0.3571748358046814	0.5871958502814686	0.5815344670919498	0.4091101354175283	0.5149496148643437	0.8309576432573269	0.38934695842053824	0.48919882926809594	0.954584243046772	0.4117045208233405	0.5131168823591854	0.989722862878831	0.398132198143322	0.5592640264520454	0.9822231667197344	-0.01208656277637777	0.5383237660780091	0.30462336634388176	-0.07285136800625454	0.5092527087048646	0.5829348884888603	-0.10847063441177984	0.44161299617998556	0.8422787736504669	-0.11166303810785257	0.4274702557811808	0.9558355593836962	-0.1247234086016339	0.4336552748537262	0.9862056162712033	-0.13697333391675454	0.4716727301695452	0.9802807219541148
264	4.4	0.2525662833594004	0.5960304593340351	0.8454436188136635	0.23756676790019637	0.6274280552951776	1.2489294181100412	0.2052891252656454	0.7959107382590233	1.7162753735993614	0.2317422819277184	0.5261498699226036	1.7168329624716243	0.28385161590137986	0.5844749366656707	1.73505077574014	0.19453477538149402	0.8307816082696242	1.7579544481742089	0.03180782883465606	0.5526729264051212	0.8453898526940672	0.024277818736307084	0.6311390753803932	1.2606315145560676	-0.0051878152634046125	0.7380764015946458	1.6830062873283602	0.08127914049744515	0.49230073952744813	1.6999944204734865	0.0010214324733187655	0.5282173760012663	1.6987901660120766	-0.009858527509487378	0.8465490332595477	1.7748765777812785	0.13360543736636635	0.5207071141439771	0.1980633983230485	0.1409778704314954	0.4376138447549831	-0.048235103523190576	0.1569334678107619	0.3740120985494459	0.08865013761628031	0.3153697280451172	0.558698504132795	0.30976407603434514	0.35639345172600556	0.5845476622264948	0.584767300979281	0.40892630171555394	0.5101925366622048	0.8316906572561663	0.39042546288486246	0.46889842454544517	0.9554718972796954	0.41127863388171004	0.4971739567749561	0.9895944047041083	0.4028597915853556	0.546509931377403	0.9806787191071707	-0.012483109589951186	0.5366246522071105	0.3045717642241576	-0.07276605235785806	0.5095965279429754	0.582535723474324	-0.10636995788721244	0.43243149477859477	0.8435331039108379	-0.10912667803024634	0.42448531933596706	0.9578586372098956	-0.1216762770816924	0.4285244525582839	0.9902937213111822	-0.1301562806234805	0.45636092141546225	0.9815994650751517
265	4.416666666666667	0.2524404934504141	0.5960477976652245	0.845457740753192	0.23676084856447707	0.6277096955572826	1.251431496164793	0.20505515806805014	0.7958095448127923	1.7144591832178258	0.2335168150338602	0.5286047165294192	1.7183525090264298	0.28457949715606734	0.5887586538770709	1.7371415794232392	0.1951968952317392	0.829849186750778	1.7528446819321593	0.03196185334859862	0.5537623359401574	0.8453017467115851	0.021669572892117114	0.6365424357104857	1.260192195456586	-0.0058269401235226444	0.7374879778501213	1.6825884808741216	0.07903389510150123	0.4980919043710741	1.7046018861026162	0.00015493794281523459	0.5282524680065526	1.7003472793269765	-0.010058679341374235	0.8465221873902677	1.7713854918912473	0.13365600754425674	0.5207086250969851	0.1987761560609998	0.1386472272838457	0.4403248719468833	-0.04778051641256994	0.15569628202390054	0.37069560629446563	0.08969358671652305	0.3129880964584726	0.56163015644291	0.3102757010577801	0.35548696075067665	0.5839802141061283	0.5892193375125577	0.4086958271006538	0.5060215384400016	0.8335839450330149	0.3883370484000116	0.45386630244718795	0.9574307075188423	0.4079548352024083	0.47867227061698453	0.9893833233147123	0.40560234538716505	0.5392287072980393	0.9803605561662352	-0.012202000650076728	0.532756388920697	0.30439989153790387	-0.0729607405920924	0.509913904541025	0.5829197746673701	-0.1023108503742493	0.42411852942406214	0.8449258713220311	-0.10369586842553745	0.4142377306264021	0.9575177623329003	-0.11719801290847967	0.41759631619797766	0.9914057357971202	-0.12355376563303938	0.4424735538287655	0.980985602479836
